<svg width="16" height="16" viewBox="0 0 16 16" fill="none" xmlns="http://www.w3.org/2000/svg">
<path d="M7.67653 1.39616C7.88466 1.31326 8.11599 1.31326 8.32413 1.39616C8.99506 1.66336 9.12613 2.69228 9.91779 2.74956C10.4753 2.78989 11.0223 2.32516 11.5817 2.46448C11.8073 2.52067 12.0022 2.66451 12.1243 2.86503C12.4985 3.47948 12.0156 4.3826 12.6259 4.89244C13.0499 5.2465 13.7504 5.20068 14.119 5.63472C14.2742 5.81754 14.3505 6.056 14.3305 6.29645C14.2715 7.01172 13.3596 7.45905 13.56 8.22992C13.6987 8.76352 14.2839 9.13865 14.3305 9.70485C14.3505 9.94532 14.2742 10.1838 14.119 10.3666C13.6558 10.9119 12.6542 10.7323 12.3654 11.4715C12.1626 11.9903 12.423 12.6458 12.1243 13.1363C12.0022 13.3368 11.8073 13.4807 11.5817 13.5369C10.8871 13.7098 10.1821 12.9637 9.51373 13.3845C9.03653 13.6849 8.86553 14.3897 8.32413 14.6051C8.11599 14.6881 7.88466 14.6881 7.67653 14.6051C7.13513 14.3897 6.96413 13.6849 6.48692 13.3845C5.8268 12.9689 5.10175 13.7069 4.41893 13.5369C4.19331 13.4807 3.99846 13.3368 3.87636 13.1363C3.50223 12.5219 3.98502 11.6187 3.37479 11.1089C2.95087 10.7548 2.25029 10.8007 1.88169 10.3666C1.72647 10.1838 1.65022 9.94532 1.67009 9.70485C1.71689 9.13865 2.30193 8.76352 2.44066 8.22992C2.63905 7.46712 1.72835 7.00125 1.67009 6.29645C1.65022 6.056 1.72647 5.81754 1.88169 5.63472C2.34483 5.08921 3.34632 5.269 3.63525 4.52987C3.83807 4.01105 3.57771 3.3555 3.87636 2.86503C3.99846 2.66451 4.19331 2.52067 4.41893 2.46448C4.97836 2.32516 5.52537 2.7899 6.08285 2.74956C6.87453 2.69229 7.00559 1.66336 7.67653 1.39616Z" fill="#2A72DB"/>
<path d="M6 8.88822C6 8.88822 6.58333 8.88822 7.16667 9.99935C7.16667 9.99935 9.0196 7.22155 10.6667 6.66602" stroke="white" stroke-linecap="round" stroke-linejoin="round"/>
</svg>
